<svg width="126" height="125" viewBox="0 0 126 125" fill="none" xmlns="http://www.w3.org/2000/svg">
<path d="M79.2797 92.1506C79.9753 95.4608 80.4171 98.5264 81.2832 101.474C82.8755 106.902 84.7871 112.234 86.41 117.654C86.8299 119.051 87.4249 119.453 88.8159 119.44C96.0337 119.379 103.251 119.409 110.474 119.418C111.2 119.418 112.131 119.217 112.608 119.584C113.549 120.3 114.892 121.374 114.848 122.243C114.804 123.16 113.426 124.126 112.459 124.837C112.031 125.156 111.187 124.92 110.53 124.92C78.8117 124.92 47.0929 124.92 15.3742 124.92C15.1555 124.92 14.9368 124.92 14.7181 124.92C12.4303 124.894 10.9561 123.807 10.9648 122.16C10.9736 120.501 12.3821 119.431 14.7443 119.427C22.1808 119.405 29.6216 119.379 37.0581 119.449C38.541 119.462 39.184 119.042 39.6215 117.571C41.4369 111.457 43.4972 105.409 45.3038 99.295C45.9556 97.094 46.1568 94.7577 46.6249 92.155H43.9784C32.1675 92.155 20.3523 92.1593 8.54143 92.155C3.09094 92.155 0.011365 89.085 0.011365 83.635C-0.00175817 58.5817 -0.00175817 33.5328 0.00261622 8.48392C0.00699061 3.04705 3.09094 0.00327522 8.57643 0.00327522C44.8883 -0.00109174 81.2045 -0.00109174 117.516 0.00327522C122.967 0.00327522 125.994 3.06452 125.994 8.57126C126.003 33.5459 126.003 58.5206 125.994 83.4953C125.994 89.1243 122.98 92.1419 117.372 92.1419C105.631 92.1506 93.8946 92.1419 82.1537 92.1419H79.2841L79.2797 92.1506ZM120.32 70.2284V67.9052C120.32 48.1796 120.32 28.4541 120.32 8.72847C120.32 5.84627 119.988 5.51438 117.013 5.51438C81.0076 5.51002 44.9976 5.51002 8.99199 5.51438C6.01303 5.51438 5.68058 5.84627 5.68058 8.72847C5.68058 28.5283 5.68058 48.3237 5.68058 68.1236C5.68058 68.8135 5.74182 69.5035 5.77244 70.2284H120.32ZM120.312 75.9754H5.6762C5.6762 78.3292 5.6762 80.5039 5.6762 82.6787C5.6762 86.5303 5.78556 86.6439 9.54754 86.6439C45.1857 86.6439 80.8283 86.6439 116.466 86.6439C117.123 86.6439 117.919 86.8447 118.4 86.5522C119.148 86.0936 120.172 85.3207 120.224 84.6176C120.434 81.8053 120.312 78.9711 120.312 75.9797V75.9754ZM80.8676 119.283C78.3174 110.274 75.8021 101.391 73.2256 92.2947H52.7709C50.1725 101.465 47.6616 110.326 45.1245 119.283H80.8676Z" fill="#fff"/>
<path d="M104.109 15.8073C103.868 18.9209 102.307 21.3184 99.52 23.1176C88.1554 30.4585 76.8432 37.8867 65.4916 45.245C64.2143 46.0704 63.4969 46.8826 63.3088 48.5901C62.6352 54.6908 58.5364 59.5119 53.6152 60.4464C52.9809 60.5687 52.3028 60.6648 51.6686 60.5818C42.5698 59.3852 34.4028 61.8482 26.8176 66.7523C26.074 67.2327 25.0635 67.6475 24.228 67.5646C22.4826 67.3899 21.4853 65.416 22.2639 63.774C26.3015 55.3021 30.5009 46.8957 36.4107 39.5418C40.9163 33.9389 46.778 31.2969 54.1226 32.5328C54.77 32.6419 55.6186 32.1878 56.2354 31.786C67.6307 24.3534 78.9866 16.8597 90.4038 9.46646C91.8255 8.54503 93.5184 7.73714 95.1675 7.52753C99.7694 6.94236 104.069 10.9993 104.1 15.8117L104.109 15.8073ZM31.3364 57.9136C32.2331 57.6385 32.7056 57.5118 33.1605 57.3502C38.7641 55.3414 44.5208 54.2148 50.4743 54.9659C53.5102 55.3502 55.4349 54.0925 56.5897 51.5596C57.329 49.9351 57.9021 48.149 58.0989 46.3848C58.6413 41.5331 54.7569 37.1792 50.3562 37.6334C47.2592 37.9565 44.324 39.0352 42.1674 41.3147C37.6574 46.0791 34.6915 51.8784 31.3408 57.9179L31.3364 57.9136ZM62.8276 40.2579C63.0989 40.1357 63.3788 40.0571 63.6106 39.9042C74.7041 32.6856 85.7976 25.4758 96.8692 18.231C98.5445 17.1349 98.9776 15.4448 97.9759 14.1566C96.8123 12.6587 95.3644 12.7504 93.9121 13.6937C90.0057 16.2265 86.1213 18.7899 82.2324 21.3402C74.8222 26.2007 67.4076 31.0655 59.9974 35.9259C60.9685 37.415 61.8784 38.8081 62.8233 40.2536L62.8276 40.2579Z" fill="#fff"/>
<path d="M63.0333 103.081C64.0482 103.081 65.2205 102.763 66.0385 103.164C66.9965 103.632 68.0464 104.61 68.3351 105.579C68.7419 106.959 67.8276 108.234 66.3185 108.37C64.1663 108.566 61.9747 108.558 59.8181 108.409C58.3133 108.304 57.5128 107.195 57.5784 105.697C57.6484 104.095 58.6064 103.195 60.2075 103.077C61.1436 103.007 62.0928 103.064 63.0333 103.064C63.0333 103.068 63.0333 103.077 63.0333 103.081Z" fill="#fff"/>
</svg>
