<svg width="103" height="141" viewBox="0 0 103 141" fill="none" xmlns="http://www.w3.org/2000/svg">
<g clip-path="url(#clip0_43_13)">
<path d="M19.2925 37.7965C32.9332 37.845 42.2111 50.008 38.7428 62.6509C38.1772 64.7067 38.6771 65.8028 40.2555 67.0398C46.8544 72.2211 56.4963 72.0935 62.933 66.6965C64.2572 65.5827 64.7 64.6011 64.2045 62.8094C61.1879 51.9538 67.2036 41.3755 77.9987 38.3204C88.1272 35.4502 98.6504 41.2038 101.97 51.4167C105.201 61.3699 99.9614 72.3224 90.1968 75.9982C85.9568 77.5961 81.6423 77.781 77.3366 76.3899C76.1001 75.9894 75.3723 76.1478 74.4953 77.0899C68.2384 83.7943 68.2603 95.143 74.6751 101.654C75.1399 102.125 76.2317 102.367 76.885 102.186C88.9735 98.8276 99.7553 105.153 102.557 117.325C105.473 129.999 93.6475 142.761 80.7961 140.806C68.2691 138.896 60.8547 127.556 64.2747 115.314C64.7175 113.729 64.3361 112.928 63.2355 111.968C56.7594 106.329 46.8632 106.254 40.0495 111.757C38.6244 112.906 38.2211 113.962 38.7428 115.837C41.6806 126.398 35.8797 136.84 25.4485 140.058C15.1227 143.245 4.23996 137.447 0.916386 126.988C-2.29757 116.881 3.25341 105.748 13.2504 102.336C17.372 100.927 21.5462 100.787 25.6985 102.191C26.8253 102.569 27.5225 102.38 28.3512 101.508C34.6037 94.9361 34.6914 83.7239 28.5222 77.0723C27.7505 76.2403 27.0928 75.9013 25.8958 76.2799C14.9341 79.74 3.36303 73.3833 0.705923 62.5057C-2.05203 51.2098 5.10373 40.0108 16.4205 37.9682C17.5605 37.7613 18.7488 37.8318 19.2969 37.8009L19.2925 37.7965ZM71.2463 104.621C67.5281 100.307 65.3796 95.2046 65.4147 89.1781C65.4498 83.1824 67.6684 78.1244 71.2595 74.0172C69.7204 72.3268 68.3086 70.7816 66.923 69.2629C56.5358 77.4641 46.1661 77.3672 36.1603 69.5623C34.5643 71.0018 33.0603 72.3576 31.6309 73.6474C39.6768 84.1949 39.5628 94.6059 31.7581 104.542C33.2795 106.157 34.7133 107.676 36.0989 109.151C46.3634 101.086 56.7287 101.095 66.9493 109.133C68.3787 107.627 69.738 106.206 71.2419 104.621H71.2463ZM34.5116 61.6649C36.2392 53.4285 32.7534 46.3323 25.9265 43.2948C19.3319 40.3586 11.444 42.5772 7.23468 48.5465C3.04733 54.4894 3.59541 62.6685 8.54131 67.9775C12.4656 72.1903 19.7134 74.1889 23.2738 72.0363C23.2606 71.9658 23.2738 71.8734 23.2299 71.8294C21.077 69.6371 18.7707 67.5725 16.8152 65.2174C15.6532 63.8219 14.6053 62.0478 14.2677 60.3002C13.6714 57.1835 15.6795 54.036 18.5734 52.5833C21.4804 51.1262 24.5409 51.5576 27.0226 53.9699C29.478 56.3559 31.8063 58.8739 34.5116 61.6649ZM68.8084 117.035C66.8309 125.333 70.1677 132.138 76.8587 135.154C83.3304 138.068 90.9816 136.127 95.3312 130.457C99.6282 124.857 99.4484 116.859 95.0638 111.325C91.3236 106.602 83.5979 104.299 79.2527 106.602C81.673 108.952 84.1767 111.109 86.3208 113.575C87.452 114.873 88.3815 116.647 88.6622 118.333C89.1883 121.485 87.1933 124.518 84.238 125.953C81.3003 127.38 78.4371 127.036 75.9773 124.642C73.4869 122.212 71.1849 119.579 68.804 117.035H68.8084ZM68.4226 61.5196C71.0008 58.8387 73.2326 56.4307 75.5608 54.1152C77.7663 51.923 80.3883 51.1922 83.3655 52.3323C89.0875 54.5246 90.5256 60.9033 86.2506 65.2702C84.0232 67.5417 81.6906 69.7031 79.2439 72.0671C85.1588 74.1889 92.2269 71.4728 95.8881 66.045C99.7992 60.2474 99.2599 52.3984 94.5858 47.1555C89.9249 41.9213 82.2518 40.5259 76.0212 43.7746C69.8169 47.0102 66.6731 54.0008 68.4226 61.5196ZM23.6947 106.395C17.5123 104.317 10.2557 107.266 6.76114 112.892C3.04295 118.888 3.84095 126.662 8.69477 131.725C13.6845 136.928 21.3796 138.002 27.5356 134.357C33.4812 130.835 36.4058 123.801 34.3801 117.017C31.9072 119.623 29.6447 122.088 27.2901 124.452C25.3609 126.389 23.0458 127.212 20.301 126.469C14.2326 124.822 12.2156 117.902 16.5521 113.355C18.7619 111.039 21.134 108.878 23.6947 106.386V106.395ZM28.5397 107.663C25.1065 111.096 22.2346 113.909 19.4416 116.793C18.0516 118.228 18.3936 119.751 19.6564 121.076C20.8359 122.313 22.3924 122.916 23.7341 121.635C26.7815 118.734 29.6447 115.635 32.9551 112.232C31.5125 110.74 30.1138 109.291 28.5397 107.663ZM70.1458 65.75C71.6935 67.5637 73.0703 69.1793 74.4515 70.7949C77.8014 67.4536 80.6251 64.7199 83.3523 61.8894C84.7554 60.4367 84.6546 58.8563 83.3041 57.4344C81.9142 55.9729 80.1866 55.8452 78.7046 57.2671C75.8721 59.992 73.1186 62.7962 70.1501 65.7456L70.1458 65.75ZM69.9484 112.298C73.2852 115.657 76.0957 118.514 78.9414 121.331C80.3357 122.709 81.8484 122.59 83.1945 121.296C84.4967 120.041 84.9527 118.505 83.5628 117.048C80.704 114.059 77.7487 111.162 74.4208 107.812C72.873 109.362 71.4655 110.775 69.9484 112.294V112.298ZM32.5342 65.816C32.2316 65.4771 31.9992 65.1998 31.7405 64.94C29.2237 62.4132 26.7201 59.8644 24.1726 57.3684C22.695 55.9201 21.1297 55.8893 19.7485 57.1703C18.2446 58.5658 18.1437 60.2033 19.6038 61.7617C21.2963 63.5666 23.0852 65.2878 24.8303 67.0442C28.6713 70.9093 29.2018 70.8477 32.407 66.1726C32.4465 66.1154 32.4596 66.0362 32.5385 65.816H32.5342Z" fill="#fff"/>
<path d="M51.4451 0C63.8406 0.198096 74.5479 4.43734 83.5847 12.907C84.6414 13.8975 85.3122 14.9584 84.6151 16.3715C83.9311 17.7626 82.0939 17.6877 80.5373 16.191C75.4862 11.3399 69.6327 7.90181 62.8628 6.13216C47.9199 2.22747 34.6124 5.40581 22.9843 15.5967C20.8885 17.4324 19.4196 17.8858 18.5427 16.618C17.1308 14.571 18.7488 13.4177 20.0466 12.2423C28.9825 4.1468 39.5057 0.176085 51.4451 0Z" fill="#fff"/>
<path d="M52.7913 12.8497C60.4119 13.1182 68.2122 16.0368 74.7102 22.2262C75.9248 23.384 76.5693 24.6209 75.0566 25.9372C73.7719 27.0553 72.6451 26.3686 71.6015 25.3781C68.2034 22.1558 64.2704 19.8314 59.7585 18.5812C49.3318 15.6934 40.0232 17.9077 31.7976 24.8939C31.4073 25.224 31.061 25.8535 30.662 25.88C29.6272 25.946 28.3293 26.0824 27.6234 25.5454C27.1893 25.2152 27.2595 23.2035 27.7681 22.7985C30.7803 20.4125 33.8408 18.0002 37.1776 16.1204C41.2597 13.8181 46.7843 12.8409 52.7957 12.8497H52.7913Z" fill="#fff"/>
<path d="M51.4672 38.668C55.9527 38.6768 59.7279 42.445 59.6928 46.8824C59.6577 51.3461 55.8694 55.0879 51.4102 55.0703C46.9685 55.0527 43.1451 51.2273 43.1714 46.8251C43.1977 42.3658 46.9685 38.6548 51.4672 38.668ZM51.4058 50.633C53.4096 50.655 55.2117 48.8897 55.2336 46.8868C55.2555 44.8794 53.5104 43.1362 51.4672 43.123C49.4502 43.1097 47.6306 44.8574 47.6174 46.8251C47.5999 48.7665 49.4371 50.611 51.4102 50.633H51.4058Z" fill="#fff"/>
<path d="M51.4935 25.7743C56.8208 25.8227 61.4817 27.6056 65.4718 31.1449C66.6775 32.2102 67.5238 33.4252 66.2303 34.8955C65.0026 36.2954 63.845 35.5866 62.6436 34.5874C55.6326 28.7457 47.3149 28.7237 40.2863 34.5345C39.0805 35.5294 37.9273 36.2161 36.6996 34.8119C35.393 33.3151 36.3138 32.1354 37.4845 31.0657C41.1501 27.72 46.3941 25.7259 51.4847 25.7743H51.4935Z" fill="#fff"/>
<path d="M51.4452 95.6361C47.898 95.6228 45.0962 92.8231 45.0743 89.2662C45.0568 85.7445 47.9419 82.7907 51.4233 82.7731C55.2423 82.751 58.3773 86.2507 57.7679 90.2259C57.2856 93.3866 54.6285 95.6493 51.4408 95.6361H51.4452ZM52.537 90.6C53.3745 90.0542 53.5104 88.87 52.822 88.1436C52.3791 87.677 52.0152 87.3513 51.6557 87.3557C50.9629 87.3557 49.8053 88.3726 49.7176 89.0593C49.6387 89.6932 50.4017 91.0755 51.3005 91.0623C51.6469 91.0578 52.0371 90.9302 52.5414 90.6044L52.537 90.6Z" fill="#fff"/>
</g>
<defs>
<clipPath id="clip0_43_13">
<rect width="103" height="141" fill="white"/>
</clipPath>
</defs>
</svg>
