<svg width="42" height="45" viewBox="0 0 42 45" fill="none" xmlns="http://www.w3.org/2000/svg">
<g clip-path="url(#clip0_6_9)">
<path d="M29.4335 17.6583C30.5299 16.4995 31.6841 15.2818 32.837 14.0629C32.9334 14.1384 33.0285 14.2138 33.1249 14.2893C33.1468 14.3814 33.1892 14.4735 33.1879 14.5656C33.1828 18.2249 33.1609 21.8855 33.1789 25.5447C33.1815 26.1766 33.0131 26.3748 32.3512 26.3723C24.7974 26.3493 17.2437 26.3505 9.68991 26.3723C9.06011 26.3736 8.84289 26.2418 8.84932 25.5729C8.88274 22.062 8.86474 18.551 8.86603 15.0401C8.86603 14.8534 8.88145 14.6679 8.89559 14.3494C10.0614 15.498 11.1475 16.5685 12.2335 17.6391C8.84804 11.5816 9.21435 6.1854 14.9944 1.85333C18.4711 -0.752046 24.0699 -0.608795 27.449 2.27413C32.7329 6.7827 32.9283 12.0523 29.4322 17.6583H29.4335ZM17.7141 11.1199C21.0263 11.1199 24.2537 11.1199 27.4811 11.1199C28.2433 11.1199 28.3346 11.1915 28.1431 11.9231C27.904 12.8351 27.5865 13.7278 27.2768 14.7139C27.6701 14.7139 28.0955 14.7574 28.5042 14.6973C28.7356 14.6641 29.0364 14.5131 29.143 14.3238C30.6906 11.5675 30.2266 7.68058 28.0955 5.32461C24.7087 1.57962 18.2218 1.13324 14.3723 4.42034C13.6924 5.00102 13.159 5.75181 12.4957 6.49364C12.9263 6.72642 13.1911 6.85433 13.4417 7.00653C13.8029 7.22652 14.0407 7.16513 14.2849 6.79805C15.7321 4.61475 17.8439 3.65164 20.4145 3.55444C24.1111 3.41502 27.2382 5.61367 28.0325 8.90972C28.2318 9.73598 28.1688 9.81655 27.2909 9.81655C24.426 9.81783 21.5597 9.81655 18.6948 9.81911C18.3786 9.81911 18.0637 9.85364 17.7154 9.87411V11.1186L17.7141 11.1199ZM14.1975 19.3261C14.1602 19.3722 14.1229 19.4182 14.0857 19.4643C14.2168 19.6139 14.3389 19.7712 14.479 19.9106C16.4738 21.8982 18.4827 23.8705 20.4569 25.8799C20.8721 26.3019 21.0957 26.2405 21.4749 25.8568C23.5777 23.7362 25.7061 21.6399 27.8217 19.532C27.9387 19.4156 28.0248 19.2698 28.1251 19.1368C23.4928 22.3497 18.8786 22.4546 14.1975 19.3274V19.3261Z" fill="white"/>
<path d="M21.2307 35.9777C21.2307 33.1907 21.2462 30.4025 21.2166 27.6155C21.2102 27.0386 21.3991 26.9018 21.9479 26.9056C25.372 26.9273 28.7948 26.9325 32.2188 26.903C32.8576 26.8979 33.0093 27.1051 32.9887 27.705C32.8088 33.0807 31.215 37.8937 27.3398 41.7948C25.8218 43.3232 23.9826 44.3349 21.9119 44.9386C21.4132 45.0844 21.2179 44.9501 21.2217 44.404C21.241 41.5952 21.2307 38.7865 21.2294 35.9777H21.2307Z" fill="white"/>
<path d="M20.6395 35.9777C20.6395 38.7213 20.6395 41.466 20.6395 44.2096C20.6395 45.0627 20.5264 45.1215 19.7179 44.8708C16.0008 43.721 13.4816 41.1962 11.6552 37.9027C10.2465 35.3625 9.40204 32.6356 9.1514 29.7374C9.08971 29.0198 9.08328 28.2959 9.02159 27.5784C8.97917 27.0911 9.13855 26.9069 9.65782 26.9094C13.123 26.9273 16.5882 26.9261 20.0534 26.9069C20.5611 26.9043 20.6511 27.1077 20.6485 27.5528C20.6318 30.3603 20.6408 33.169 20.6408 35.9765L20.6395 35.9777Z" fill="white"/>
<path d="M33.7817 20.2994C33.7817 18.5152 33.7985 16.7297 33.7728 14.9454C33.765 14.4146 33.9476 14.2483 34.4732 14.2573C36.8806 14.3021 38.9345 15.1628 40.5707 16.9087C42.5308 18.9987 42.4743 21.8074 40.4088 23.8705C38.7585 25.5191 36.72 26.339 34.3627 26.3658C33.9077 26.371 33.7702 26.2149 33.774 25.7801C33.7895 23.9536 33.7805 22.1259 33.7817 20.2994Z" fill="white"/>
<path d="M8.23754 20.3544C8.23754 22.1413 8.22597 23.9293 8.24525 25.7161C8.25039 26.2073 8.10129 26.3876 7.58331 26.3672C5.06797 26.2699 2.90351 25.4028 1.26217 23.474C-0.446003 21.4672 -0.420297 19.0076 1.33543 17.0341C2.98063 15.1846 5.09753 14.3021 7.58203 14.2599C8.09487 14.2509 8.25039 14.439 8.24525 14.9275C8.22597 16.7361 8.23754 18.5446 8.23754 20.3532V20.3544Z" fill="white"/>
</g>
<defs>
<clipPath id="clip0_6_9">
<rect width="42" height="45" fill="white"/>
</clipPath>
</defs>
</svg>
