<svg width="123" height="148" viewBox="0 0 123 148" fill="none" xmlns="http://www.w3.org/2000/svg">
<g clip-path="url(#clip0_36_267)">
<path d="M12.9645 111.597C8.61171 114.601 7.02889 118.515 6.57383 123.146C5.83188 130.636 5.03058 138.122 4.07594 145.588C3.96712 146.428 2.7256 147.124 2.00838 147.885C1.306 147.114 -0.0591786 146.279 0.00512346 145.578C0.841051 136.605 1.61762 127.612 2.96797 118.709C3.7297 113.671 6.99427 109.871 11.4361 107.349C12.7518 106.603 13.004 105.733 12.9892 104.395C12.9348 99.3413 12.9397 94.2829 12.9793 89.2246C13.009 85.0317 15.5761 82.4403 19.7755 82.4155C26.4333 82.3707 33.096 82.4055 39.5954 82.4055C37.236 78.322 34.6887 74.4027 32.6805 70.2247C31.6714 68.1258 30.7168 67.146 28.3079 66.937C20.9874 66.2954 16.4862 57.0691 20.196 50.6877C21.4622 48.5092 23.0203 47.6189 27.1159 46.7087C26.4432 42.9833 25.5528 39.2828 25.1472 35.5276C24.2025 26.7737 25.1373 18.5869 33.0663 12.9267C33.4323 12.6631 33.6945 12.1956 33.9022 11.7778C37.4735 4.56576 43.5871 1.22338 51.239 0.313173C59.351 -0.646768 67.3146 0.780709 75.288 1.99431C81.921 3.00399 88.5293 3.78985 94.826 0.362911C95.4294 0.0346409 96.7155 0.228619 97.2249 0.691181C97.7591 1.17364 98.1103 2.38724 97.9026 3.08855C96.943 6.31156 95.7559 9.46992 94.5539 12.9217C95.652 12.5338 96.7451 12.0314 97.8976 11.7778C98.783 11.5838 100.094 11.3202 100.574 11.7778C101.192 12.3647 101.617 13.7971 101.335 14.583C100.435 17.1295 99.1589 19.5418 98.0658 22.0238C97.7542 22.735 97.2348 23.5756 97.3783 24.2321C98.9512 31.5038 97.6849 38.5417 95.8202 45.5498C95.7213 45.9278 95.7311 46.3307 95.6916 46.7186C101.657 47.8576 104.135 50.7424 103.982 56.2534C103.828 61.7942 99.7921 66.5541 94.549 66.952C92.2737 67.1261 91.3141 68.0263 90.3347 70.0705C88.3265 74.2734 85.7693 78.2126 83.3555 82.4055C83.8748 82.4055 84.6514 82.4055 85.428 82.4055C91.2003 82.4055 96.9677 82.3906 102.74 82.4105C107.414 82.4254 109.932 84.9223 109.957 89.5628C109.981 94.6212 109.897 99.6745 110.026 104.728C110.046 105.573 110.694 106.732 111.406 107.18C116.694 110.527 119.839 115.168 120.492 121.47C121.294 129.204 122.105 136.938 122.951 144.667C123.124 146.264 122.857 147.682 121.071 147.811C119.34 147.935 118.85 146.637 118.692 145.021C117.955 137.615 117.099 130.219 116.328 122.813C115.863 118.331 114.196 114.556 110.1 111.641C110.046 112.716 109.967 113.487 109.967 114.258C109.957 123.041 109.972 131.83 109.957 140.614C109.947 145.239 107.434 147.95 102.844 147.96C75.2287 148.005 47.6134 148.005 20.0031 147.96C15.4426 147.95 12.9744 145.21 12.9645 140.544C12.9496 131.84 12.9645 123.136 12.9645 114.437C12.9645 113.641 12.9645 112.845 12.9645 111.602V111.597ZM61.4779 143.523C74.9912 143.523 88.5095 143.528 102.023 143.523C105.149 143.523 105.579 143.081 105.579 139.922C105.584 123.429 105.584 106.941 105.579 90.4481C105.579 87.0312 105.372 86.8372 101.87 86.8322C74.922 86.8322 47.9695 86.8322 21.022 86.8322C17.5448 86.8322 17.3469 87.0262 17.342 90.478C17.337 106.887 17.342 123.295 17.342 139.704C17.342 143.205 17.6585 143.523 21.1754 143.523C34.6095 143.523 48.0437 143.523 61.473 143.523H61.4779ZM43.0331 32.6577C42.4 35.2888 42.212 38.4969 40.8567 41.0933C39.2492 44.172 36.6079 46.6937 34.4908 49.5139C33.8923 50.3147 33.1603 51.3343 33.1801 52.2395C33.4521 63.3559 37.0184 73.1493 45.1303 80.9582C45.9663 81.7639 47.3958 82.326 48.5581 82.3409C57.1301 82.4553 65.707 82.4652 74.279 82.3359C75.5106 82.316 77.0143 81.6992 77.9096 80.8487C85.0966 73.9849 88.5095 65.3206 89.7065 55.567C90.1022 52.329 89.3652 49.9267 86.8228 47.7532C83.2071 44.6545 80.9862 40.6556 80.6152 35.7415C80.4866 34.0454 80.0711 32.3742 79.7793 30.6533C77.9887 30.4991 76.4207 30.3598 74.5016 30.1957C75.0704 31.1158 75.5304 31.6281 75.7282 32.225C76.1141 33.3889 76.3515 34.6025 76.6483 35.7962C75.5156 36.0697 74.3927 36.3831 73.2551 36.592C72.8742 36.6616 72.434 36.5223 72.0432 36.4079C67.9724 35.2491 63.9066 34.0752 59.9198 32.9263C60.4788 36.1493 59.4895 37.2933 56.1112 36.4676C51.6842 35.3833 47.3414 33.931 43.0282 32.6577H43.0331ZM92.5111 6.90841C87.7033 6.90841 83.3654 7.19689 79.0769 6.84376C71.6278 6.22701 64.2281 4.93879 56.774 4.45136C50.3685 4.03357 44.0867 5.25214 39.8477 10.6785C37.6466 13.4937 35.8906 16.5775 33.0267 18.9002C31.7802 19.9099 30.8108 21.7253 30.4992 23.3319C29.8363 26.7041 29.2576 30.2007 29.4357 33.6027C29.6434 37.6215 30.6871 41.5956 31.3648 45.5896L32.6063 45.8482C34.2287 43.237 36.2369 40.7849 37.3498 37.9747C38.3242 35.5077 38.4133 32.6527 38.6754 29.942C39.0612 25.958 40.2632 25.3811 43.686 27.2413C47.0099 29.0517 50.5466 30.4692 53.9843 32.0609C54.2464 30.4891 53.8754 29.6237 53.92 28.7732C53.9744 27.7287 54.0733 26.3708 54.7213 25.7839C55.2109 25.3363 56.7047 25.6298 57.5555 26.0277C60.1573 27.2363 62.6255 28.7433 65.2272 29.9569C66.632 30.6135 68.2 30.9119 69.951 31.4491C68.1159 25.0478 68.4374 24.8638 74.6005 25.5402C78.2212 25.9381 81.9952 26.0028 85.5813 25.4407C90.1764 24.7146 93.4459 21.7353 95.6817 17.4678C93.6438 17.1843 91.8384 17.1047 90.127 16.657C87.4708 15.9657 87.1542 14.5084 88.8261 12.2851C90.1418 10.5393 91.2992 8.66914 92.4913 6.90344L92.5111 6.90841ZM84.4239 30.6035C84.7206 36.3632 85.6011 41.9388 91.2498 45.5746C93.0156 39.4718 94.178 33.5033 93.3866 27.2711C90.2358 28.4399 87.3471 29.5143 84.4239 30.6035ZM93.1047 62.7441C97.5168 62.1672 99.9701 59.1133 99.5695 55.0099C99.2628 51.8764 97.2497 50.7325 94.3709 51.9063C93.9505 55.4924 93.5449 58.9989 93.1047 62.7441ZM29.9155 62.6845C29.6286 60.7347 29.3219 58.9641 29.1142 57.1835C28.9064 55.3929 28.7976 53.5924 28.6492 51.8217C25.2066 50.9016 23.5545 52.1201 23.327 55.4675C23.0995 58.78 25.8496 62.8735 29.9155 62.6845Z" fill="#fff"/>
<path d="M61.4678 124.902C56.106 124.902 51.7384 120.525 51.7285 115.138C51.7236 109.826 56.2049 105.285 61.448 105.29C66.706 105.295 71.1527 109.786 71.1824 115.123C71.2121 120.495 66.8346 124.897 61.4678 124.897V124.902ZM66.8346 115.093C66.8098 112.154 64.3614 109.757 61.4134 109.776C58.4753 109.801 56.0565 112.253 56.0862 115.183C56.1159 118.008 58.7473 120.639 61.5024 120.599C64.2971 120.56 66.8543 117.914 66.8296 115.088L66.8346 115.093Z" fill="#fff"/>
<path d="M63.7284 53.6125H59.2223C59.0046 54.9703 58.792 56.2536 58.5941 57.5418C58.0797 60.9438 56.027 62.8438 52.6239 62.9383C50.3189 63.003 48.009 62.998 45.704 62.9383C42.2465 62.8488 40.0652 60.7946 39.62 57.3428C39.4271 55.8656 39.2243 54.3934 38.9968 52.9211C38.3785 48.957 40.7824 45.7638 44.7147 45.5898C47.6726 45.4604 50.6602 45.3858 53.6033 45.6445C54.9685 45.7638 56.4969 46.4751 57.5405 47.3853C60.1374 49.6583 62.8479 49.7429 65.4052 47.2709C68.0416 44.7193 79.6901 44.7442 82.2869 47.3057C85.5713 50.5387 84.2803 60.9886 79.9473 62.1226C76.0694 63.1423 71.6771 62.6797 67.6063 62.1425C66.3648 61.9784 65.2073 59.5164 64.4357 57.9049C63.857 56.7062 63.9608 55.1792 63.7284 53.5976V53.6125ZM49.3395 50.0512C49.0081 50.0512 48.6817 50.0512 48.3503 50.0512C44.9934 50.0512 43.4386 51.6992 43.6859 54.9952C43.7106 55.3235 43.7304 55.6567 43.7502 55.985C43.8739 57.7357 44.601 58.7206 46.5548 58.5564C48.1079 58.4221 49.6907 58.4022 51.2389 58.5564C53.628 58.8051 54.4293 57.7606 54.5381 55.4578C54.7953 50.0463 54.8745 50.0512 49.3346 50.0512H49.3395ZM73.8337 50.0512C69.8733 50.0512 68.0795 52.0192 68.4521 55.9551C68.462 56.0397 68.462 56.1193 68.4669 56.2038C68.5411 57.7905 69.2485 58.6161 70.945 58.5465C72.8345 58.4669 74.7339 58.452 76.6185 58.5515C78.1766 58.636 79.0224 57.9248 79.0867 56.4724C79.3488 50.4889 81.8912 49.8523 73.8337 50.0512Z" fill="#fff"/>
<path d="M61.4926 76.9346C58.7226 76.2781 56.0813 75.7409 53.4993 75.0048C52.0847 74.6019 50.8135 73.7116 51.5208 71.926C52.1787 70.2648 53.435 70.2896 54.9882 70.8964C59.3013 72.5875 63.6937 72.5676 67.997 70.8815C69.5847 70.2598 70.7966 70.3394 71.4297 71.9807C72.0529 73.6022 70.9697 74.5472 69.6095 74.9351C66.9483 75.6961 64.2328 76.2681 61.4975 76.9296L61.4926 76.9346Z" fill="#fff"/>
</g>
<defs>
<clipPath id="clip0_36_267">
<rect width="123" height="148" fill="white"/>
</clipPath>
</defs>
</svg>
