<svg width="126" height="126" viewBox="0 0 126 126" fill="none" xmlns="http://www.w3.org/2000/svg">
<path d="M101.585 58.2076C102.284 60.6244 103.088 62.5294 103.356 64.5034C104.023 69.406 102.146 73.2973 97.9158 75.8562C86.6365 82.676 75.3368 89.4674 63.9762 96.1491C60.6362 98.111 57.0769 99.6342 52.9894 98.18C52.5465 98.0216 51.6729 98.5821 51.2138 99.0289C47.7316 102.437 44.2779 105.881 40.8649 109.358C39.268 110.983 37.5046 111.978 35.1195 111.828C34.4613 111.787 33.6121 112.287 33.0961 112.79C29.4595 116.332 25.8962 119.951 22.284 123.518C18.9319 126.828 16.3965 126.816 13.1256 123.55C9.53377 119.96 5.93381 116.381 2.34196 112.794C-0.758233 109.699 -0.794801 107.088 2.31759 103.911C5.77941 100.382 9.29405 96.9087 12.8006 93.4236C13.7148 92.5138 14.2186 91.673 14.2674 90.166C14.3202 88.6022 15.2872 86.7947 16.3924 85.5884C19.8258 81.8555 23.5273 78.3705 27.0867 74.7514C27.497 74.333 28.009 73.541 27.8668 73.1307C26.4122 68.9105 27.9927 65.2752 30.0162 61.7739C33.0311 56.5707 36.176 51.4446 39.264 46.282C42.6973 40.5386 46.1145 34.7871 49.5682 29.0518C53.3266 22.8128 58.7834 20.9687 65.5039 23.7998C66.922 24.3969 67.7224 24.2669 68.8032 23.1702C75.9341 15.9402 83.1421 8.7873 90.3299 1.61005C92.4712 -0.52647 93.0197 -0.534594 95.1285 1.5735C104.896 11.3341 114.66 21.0946 124.424 30.8593C126.512 32.9471 126.521 33.6294 124.477 35.6766C117.342 42.8132 110.207 49.9458 103.06 57.0621C102.536 57.5821 101.881 57.972 101.589 58.1954L101.585 58.2076ZM89.826 51.1684C89.0581 51.8711 88.5136 52.326 88.0098 52.8297C82.2604 58.565 76.5192 64.3125 70.7698 70.0437C68.852 71.9569 68.2344 71.9406 66.2759 69.995C62.8222 66.5587 59.3726 63.1183 55.9352 59.6698C54.0945 57.8258 54.0945 57.1677 55.9555 55.3074C61.7414 49.5112 67.5355 43.7272 73.3255 37.935C73.7887 37.4719 74.2153 36.9764 74.7639 36.3834C72.33 34.0844 70.0831 31.8301 67.6858 29.7545C66.6335 28.8446 65.317 28.1825 64.029 27.6179C59.2832 25.5505 55.7807 26.6715 53.1397 31.038C51.1853 34.2753 49.2756 37.545 47.3375 40.7945C45.4806 43.9099 43.6116 47.0172 41.71 50.1895C44.3226 52.7891 46.8052 55.2749 49.3081 57.7445C50.393 58.8168 51.3722 60.011 49.9257 61.3555C48.6458 62.5415 47.4594 61.7657 46.4314 60.6853C44.2535 58.3944 42.0432 56.132 39.6418 53.6461C38.9145 54.8728 38.5245 55.8273 37.8825 56.5625C36.3954 58.2644 36.7407 59.487 38.3904 60.9168C40.5845 62.8177 42.6242 64.9177 44.538 67.103C45.0377 67.6716 45.119 68.9998 44.8143 69.7391C44.6111 70.2306 43.3393 70.5515 42.608 70.4621C41.9863 70.3849 41.4053 69.6538 40.8852 69.1339C38.7561 66.9933 36.6554 64.8243 34.1931 62.3019C33.1733 64.6781 32.2184 66.5303 31.6008 68.4881C31.1458 69.93 31.3896 71.3882 32.6085 72.5946C39.5647 79.5119 46.4558 86.4901 53.4566 93.3627C54.188 94.0816 55.602 94.7397 56.4918 94.5366C58.8444 93.9923 61.0832 92.9606 63.8543 91.9411C61.0547 89.2075 58.7875 86.9856 56.5081 84.7719C55.4151 83.7118 54.7975 82.5054 56.0814 81.2828C57.3085 80.1171 58.4137 80.8685 59.4051 81.8677C61.6439 84.1261 63.8786 86.3885 66.1865 88.5819C66.5685 88.9434 67.438 89.2481 67.8321 89.0572C69.3233 88.3382 70.7088 87.4081 72.326 86.4413C69.7784 83.9352 67.4664 81.6565 65.1463 79.3859C64.1265 78.3867 63.4561 77.2657 64.6913 76.0756C65.8615 74.9464 67.0113 75.4338 68.0475 76.4817C70.2822 78.7482 72.5657 80.9619 74.7842 83.2406C75.479 83.9514 76.0153 84.2805 77.023 83.6671C83.3128 79.8368 89.6798 76.1243 95.9492 72.2656C98.9438 70.4215 100.025 67.5904 99.1348 64.2231C98.7447 62.7446 98.2612 61.1565 97.351 59.9785C95.0472 57.0012 92.4793 54.227 89.8423 51.1684H89.826ZM119.556 31.8138C116.273 35.1323 113.149 38.3168 110 41.4728C108.155 43.321 107.269 43.3169 105.433 41.485C98.444 34.5027 91.4594 27.5164 84.483 20.5219C82.6749 18.7063 82.6749 18.0117 84.5439 16.1717C87.766 13.0035 91.0165 9.86775 94.3483 6.63047C93.6495 5.96433 93.231 5.56221 93.0725 5.40786C85.7344 12.7395 78.4898 19.9817 71.3021 27.163C72.2041 28.1013 73.3052 29.198 74.3576 30.3434C75.3855 31.4645 76.3648 32.6343 77.3805 33.8C78.1973 33.0283 78.5995 32.6668 78.9814 32.289C81.2528 30.0388 81.7444 30.0429 84.0645 32.3581C86.9818 35.2745 89.9032 38.1949 92.8165 41.1154C95.4576 43.7596 96.9975 44.2714 92.9018 47.9636C92.7637 48.0896 92.7109 48.313 92.6703 48.3983C94.8928 50.6119 97.0788 52.785 99.0576 54.755C106.274 47.5778 113.502 40.3843 120.804 33.1217C120.523 32.8252 120.166 32.4475 119.56 31.8097L119.556 31.8138ZM30.6704 76.9773C26.9119 80.7426 22.9991 84.6623 19.0822 88.586C18.2818 89.3862 17.8795 90.1863 18.8709 91.1734C24.1856 96.47 29.4596 101.807 34.8311 107.043C35.2455 107.449 36.6717 107.522 37.0495 107.157C41.1046 103.209 45.0418 99.1427 48.9059 95.2149C42.8355 89.1425 36.7773 83.0863 30.6663 76.9732L30.6704 76.9773ZM16.6971 95.3286C12.8412 99.2036 8.79428 103.265 4.75142 107.331C3.83315 108.253 4.28416 108.948 5.06429 109.716C8.87148 113.465 12.6624 117.23 16.4005 121.044C17.2335 121.893 17.912 122.08 18.7734 121.219C22.7756 117.206 26.7779 113.193 30.7313 109.228C26.0506 104.59 21.451 100.04 16.6971 95.3327V95.3286ZM81.5534 35.7172C74.191 43.0894 66.9748 50.3114 59.9902 57.3058C62.8832 60.2019 65.8249 63.1508 68.6326 65.9657C75.7268 58.8818 82.9512 51.664 90.208 44.4177C89.3832 43.5484 88.4649 42.5817 87.4694 41.5338C86.8599 42.1146 86.3683 42.5655 85.8969 43.0366C83.4022 45.5184 80.8911 47.988 78.4248 50.5023C77.3562 51.5909 76.1657 52.2814 74.9386 51.0263C73.6953 49.7549 74.4957 48.5607 75.5684 47.5453C76.0113 47.1269 76.4338 46.6882 76.8686 46.2617C79.4121 43.7678 81.9516 41.2697 84.5724 38.7027C83.4265 37.5735 82.5245 36.6839 81.5494 35.7253L81.5534 35.7172ZM99.6752 29.5798C100.423 30.4044 101.223 31.2858 101.991 32.1347C104.978 29.1208 107.907 26.1638 110.56 23.4871C109.87 22.6869 109.053 21.7445 108.37 20.9484C105.437 23.8607 102.532 26.7406 99.6752 29.5757V29.5798ZM96.2093 26.1882C99.1957 23.2433 102.137 20.3432 105.148 17.3699C104.462 16.6794 103.661 15.8752 102.987 15.1969C99.9515 18.1945 96.9975 21.115 94.0152 24.0598C94.7668 24.7909 95.5714 25.5708 96.2093 26.1841V26.1882ZM99.4923 12.0855C98.7406 11.1716 98.0133 10.2902 97.3998 9.5428C94.3118 12.6095 91.37 15.5299 88.5014 18.3813C89.2369 19.1978 90.0211 20.0629 90.7077 20.8225C93.7429 17.8086 96.644 14.9207 99.4964 12.0855H99.4923ZM107.525 37.7481C110.609 34.714 113.527 31.8382 116.419 28.9868C115.627 28.1419 114.823 27.2808 114.152 26.5659C111.154 29.5311 108.216 32.4393 105.164 35.4532C105.92 36.1884 106.733 36.9764 107.521 37.7481H107.525Z" fill="#fff"/>
</svg>
