<svg width="130" height="130" viewBox="0 0 130 130" fill="none" xmlns="http://www.w3.org/2000/svg">
<g clip-path="url(#clip0_36_279)">
<path d="M66.7296 99.7915C63.0568 98.3659 59.6563 97.0243 56.239 95.7203C46.9419 92.1691 37.67 88.5633 28.3226 85.1504C26.1617 84.3622 23.7578 84.0813 21.4419 83.9094C18.6067 83.7039 15.7464 83.8591 12.773 83.8591V79.6705H30.3035C23.3014 77.4945 18.6779 73.2263 17.1075 65.9183C17.0195 65.52 16.1317 65.0421 15.604 65.0253C12.6725 64.9372 9.74102 65.0001 6.80532 64.9792C2.70539 64.9498 0.100533 62.3964 0.0879698 58.3337C0.0628425 50.7155 -0.142363 43.0889 0.180103 35.4833C0.330866 31.9278 1.13494 28.2718 2.3578 24.9176C4.43498 19.2238 8.091 14.3686 12.1909 9.97466C16.1485 5.72741 21.3121 3.74844 27.0914 3.27466C38.072 2.37742 49.0442 1.34181 60.029 0.4823C65.3518 0.0672188 70.7123 -0.754558 75.9136 1.50533C79.5152 3.06922 82.631 5.19494 85.0348 8.29756C89.608 14.2051 94.1225 20.1546 98.7375 26.0286C99.3155 26.7624 100.291 27.4081 101.196 27.6219C107.427 29.081 113.688 30.4142 119.941 31.7811C125.829 33.0641 129.916 38.0199 129.971 44.0448C130.013 48.7994 130 53.5498 129.971 58.3043C129.946 62.3839 127.366 64.9456 123.278 64.9792C119.937 65.0043 116.595 64.9834 113.316 64.9834C110.041 74.3038 107.339 77.1716 99.7636 79.6454H117.294V83.7626H102.879V117.401C105.43 117.401 107.922 117.439 110.418 117.388C112.34 117.351 113.265 118.181 113.228 120.135C113.186 122.441 113.236 124.747 113.215 127.053C113.194 129.363 112.566 129.979 110.196 129.983C100.978 129.992 91.7605 129.988 82.543 129.988C61.8047 129.988 41.0621 129.988 20.3238 129.988C17.2834 129.988 16.8437 129.543 16.8395 126.47C16.8395 124.235 16.6887 121.979 16.919 119.77C17.0028 118.948 17.8236 117.787 18.5732 117.518C21.4922 116.483 24.587 115.942 27.4809 114.856C40.3167 110.047 53.1023 105.112 65.9088 100.219C66.0763 100.156 66.2313 100.051 66.7254 99.7873L66.7296 99.7915ZM50.2755 60.6313H79.7037C79.8293 60.4133 79.8837 60.3588 79.8963 60.2959C81.6719 51.8936 87.9998 46.2879 95.9191 46.1202C104.249 45.9399 110.623 51.0467 112.909 59.646C113.035 60.1114 113.772 60.7277 114.241 60.7403C117.311 60.8367 120.38 60.8074 123.454 60.778C124.849 60.7655 125.712 60.0108 125.762 58.602C125.829 56.5979 125.779 54.5938 125.779 52.4093C123.697 52.4093 121.829 52.401 119.962 52.4093C118.232 52.4177 117.399 51.575 117.407 49.8434C117.42 47.399 117.436 44.9547 117.403 42.5061C117.378 40.6823 118.199 39.7766 120.045 39.8102C121.415 39.8353 122.784 39.8144 124.434 39.8144C123.132 37.6467 121.499 36.4769 119.388 36.0157C112.934 34.5986 106.485 33.1856 100.015 31.8524C98.302 31.5002 96.9828 30.8503 95.8814 29.3828C91.2329 23.1902 86.4754 17.0772 81.739 10.9474C79.4942 8.046 76.5502 6.19281 73.091 4.98949C68.878 3.52623 64.6399 4.42347 60.4394 4.71696C50.845 5.39199 41.2715 6.33536 31.6855 7.14037C27.1039 7.5261 22.4219 7.57641 18.4644 10.3562C12.4338 14.5867 8.82806 20.6913 5.96775 27.2739C4.54806 30.5442 4.12927 34.0452 4.33447 37.718C6.3991 37.718 8.20826 37.739 10.0174 37.7138C11.7135 37.6886 12.6558 38.4308 12.66 40.1875C12.66 42.7744 12.6935 45.3572 12.6348 47.9399C12.6223 48.5269 12.438 49.2648 12.0569 49.6631C9.92947 51.8769 7.88998 54.229 5.4652 56.0696C4.12927 57.0842 3.97013 58.1576 4.48524 59.1597C4.88309 59.9311 6.12688 60.6397 7.03984 60.7068C9.8164 60.908 12.6181 60.7319 15.4114 60.8032C16.6049 60.8326 17.0279 60.4762 17.2918 59.2351C19.3606 49.5583 29.4868 43.7975 38.8509 46.9756C45.3086 49.1684 48.927 53.8768 50.2796 60.6229L50.2755 60.6313ZM92.2128 83.9597H56.7708C58.4041 84.9282 60.1128 85.62 61.834 86.2741C70.4819 89.5612 79.1341 92.8357 87.7821 96.127C90.2152 97.0536 90.5544 97.7789 89.7545 100.269C89.3064 101.661 88.8416 103.045 88.3767 104.429C87.5224 106.974 86.6262 107.468 84.1679 106.399C82.7734 105.791 81.6217 105.846 80.2188 106.399C73.8071 108.915 67.3452 111.292 60.9043 113.741C58.0858 114.81 55.2883 115.929 51.9339 117.242H92.2128V83.9681V83.9597ZM36.4932 79.5489H93.5781C85.7091 77.4358 81.2155 72.6686 79.7707 65.1511H50.2629C48.7511 72.807 44.2491 77.4693 36.489 79.5489H36.4932ZM108.935 121.757H21.1446V125.682H108.939V121.757H108.935ZM46.163 62.7906C46.1085 55.9396 40.4549 50.3214 33.6119 50.3172C26.681 50.3172 20.9938 56.0486 21.0483 62.9834C21.1027 69.8344 26.7564 75.4526 33.5993 75.4568C40.5303 75.4568 46.2174 69.7253 46.163 62.7906ZM109.015 62.9667C109.056 56.1115 103.482 50.4178 96.6352 50.3214C89.7085 50.2207 83.9376 55.8809 83.8957 62.8157C83.858 69.6666 89.4321 75.3646 96.2751 75.461C103.202 75.5616 108.973 69.9014 109.015 62.9667ZM85.3657 99.8544C84.7919 99.6112 84.415 99.4393 84.0339 99.2925C70.9761 94.2948 57.9435 89.2216 44.8228 84.379C42.7792 83.6243 40.346 83.922 38.0929 83.7291L38.0175 84.2741C53.5252 90.1859 69.0288 96.0935 84.6286 102.043C84.9092 101.209 85.106 100.626 85.3615 99.8544H85.3657ZM33.2559 117.229C37.3098 117.707 40.5051 117.242 43.6796 115.833C47.4235 114.173 51.3434 112.898 55.1753 111.435C62.0559 108.81 68.9282 106.169 75.9513 103.477C74.1715 102.299 72.6429 102.118 70.7458 102.877C63.7102 105.691 56.5991 108.319 49.5133 111.02C44.27 113.02 39.031 115.019 33.2559 117.225V117.229ZM96.5975 83.9555V117.455C97.3262 117.376 97.9042 117.309 98.4444 117.25V83.9555H96.5975ZM4.3931 41.961V50.9922C8.34646 48.2669 9.2301 46.0867 8.1245 41.961H4.3931ZM121.641 48.0741H125.632V44.1916H121.641V48.0741Z" fill="#fff"/>
<path d="M49.2871 33.5377C36.7905 33.5377 24.2897 33.567 11.7931 33.4874C10.7587 33.479 9.32224 33.0094 8.83225 32.2547C8.43441 31.6467 8.94533 30.1541 9.45625 29.2904C11.6591 25.5757 14.0043 21.9406 16.3034 18.2845C18.791 14.3266 22.3591 12.4105 27.0453 12.0834C36.5727 11.421 46.0876 10.5237 55.6066 9.72712C59.4972 9.40428 63.3877 9.01016 67.2866 8.80891C72.1068 8.56154 75.9681 10.4692 78.7614 14.4314C82.2959 19.4501 85.8431 24.4646 89.2771 29.5546C89.7839 30.3051 90.144 31.6719 89.788 32.3344C89.4321 33.0052 88.1045 33.4832 87.1999 33.4916C74.5609 33.5628 61.9261 33.5419 49.2871 33.5419V33.5377ZM56.4777 29.2485V13.9492C49.4756 14.5152 42.641 15.0645 35.8231 15.6137V29.2485H56.4777ZM60.942 29.2317H84.0507C80.5915 24.4478 77.5092 19.8107 73.9914 15.5341C72.8942 14.1966 70.683 13.3245 68.8864 13.1274C66.3108 12.8465 63.6473 13.3874 60.942 13.5802V29.2275V29.2317ZM31.3295 29.2569V15.9324C29.7004 16.0833 28.1844 15.9995 26.8108 16.4062C24.9346 16.968 22.6062 17.425 21.4671 18.7709C18.812 21.907 16.7515 25.5463 14.2639 29.2569H31.3295Z" fill="#fff"/>
<path d="M39.8016 37.8687V41.8098H31.5975V37.8687H39.8016Z" fill="#fff"/>
<path d="M56.7541 37.8101H64.8911V41.8015H56.7541V37.8101Z" fill="#fff"/>
<path d="M41.9876 62.9833C41.9416 67.6079 38.1432 71.3269 33.5114 71.2807C28.8921 71.2346 25.1775 67.4318 25.2236 62.7946C25.2696 58.1659 29.0597 54.4553 33.6998 54.5014C38.3232 54.5475 42.0337 58.3419 41.9876 62.9833ZM37.7788 62.8491C37.7537 60.6354 35.8273 58.7193 33.6161 58.7109C31.3169 58.7025 29.3402 60.7444 29.4282 63.0336C29.5161 65.2516 31.497 67.1257 33.6914 67.0712C35.9068 67.0167 37.7998 65.0587 37.7746 62.8533L37.7788 62.8491Z" fill="#fff"/>
<path d="M104.839 62.8409C104.864 67.4739 101.129 71.2558 96.5054 71.2809C91.8778 71.3061 88.0961 67.562 88.0752 62.9374C88.0542 58.3002 91.7814 54.5226 96.409 54.5016C101.041 54.4764 104.814 58.2122 104.839 62.8409ZM100.63 62.8745C100.618 60.6607 98.704 58.7363 96.4886 58.7153C94.2732 58.6943 92.3342 60.5811 92.2798 62.8074C92.2253 65.0924 94.2397 67.1175 96.5221 67.0714C98.7375 67.0295 100.639 65.0841 100.626 62.8745H100.63Z" fill="#fff"/>
</g>
<defs>
<clipPath id="clip0_36_279">
<rect width="130" height="130" fill="white"/>
</clipPath>
</defs>
</svg>
