<svg width="134" height="105" viewBox="0 0 134 105" fill="none" xmlns="http://www.w3.org/2000/svg">
<g clip-path="url(#clip0_43_20)">
<path d="M9.82958 85.3796C9.82958 84.201 9.82958 83.2867 9.82958 82.3724C9.82958 58.6183 9.82526 34.8641 9.8339 11.1057C9.8339 5.6373 12.2913 1.91949 16.9297 0.50256C18.0699 0.155911 19.331 0.108247 20.5403 0.108247C51.4846 0.0822481 82.4332 0.18191 113.378 -8.1068e-05C118.832 -0.0304129 124.248 4.17271 124.205 10.8284C124.062 32.1993 124.153 53.5745 124.153 74.9454C124.153 78.3209 124.153 81.6964 124.153 85.3796C126.671 85.3796 128.951 85.4489 131.223 85.3579C133.292 85.2756 134.112 86.2029 133.991 88.2091C133.836 90.7223 134.052 93.3005 133.559 95.7401C132.449 101.234 127.651 104.987 122.093 104.991C85.3916 105.004 48.686 105.009 11.9847 104.991C5.42006 104.991 0.211569 99.8608 0.0258597 93.2918C-0.0259662 91.4893 0.0258597 89.6824 -5.32514e-05 87.8755C-0.0216473 86.1725 0.760059 85.3493 2.48327 85.3709C4.83702 85.4013 7.19078 85.3796 9.82958 85.3796ZM13.872 85.2279H120.322C120.378 84.6776 120.456 84.2616 120.456 83.8413C120.46 59.5109 120.478 35.1805 120.447 10.85C120.443 6.39559 117.878 4.00805 113.365 4.00805C82.5671 4.00805 51.7653 4.00805 20.9678 4.00805C16.1394 4.00805 13.8806 6.29593 13.8806 11.175C13.8806 35.0721 13.8806 58.9693 13.8806 82.8664C13.8806 83.5857 13.8806 84.3006 13.8806 85.2236L13.872 85.2279ZM4.23671 89.652C2.99289 96.7323 6.53864 101.078 13.4401 101.078C49.066 101.078 84.6963 101.078 120.322 101.078C127.556 101.078 130.921 96.9533 129.513 89.652H4.23671Z" fill="#fff"/>
<path d="M52.1886 61.409C47.7014 61.409 43.3091 61.2097 38.9557 61.539C37.7422 61.63 36.6063 63.2376 35.505 64.2255C34.4037 65.2135 33.4449 66.0541 34.0323 68.0256C34.8917 70.9028 32.0715 74.2393 28.9447 74.6076C25.7963 74.9803 22.8034 72.6491 22.4967 69.5899C22.1339 66.0064 24.4661 62.6049 27.6491 63.0642C30.8709 63.5322 32.5941 61.9939 34.2353 59.9314C35.9153 57.8212 37.9235 57.0975 40.6099 57.2535C44.5443 57.4788 48.5047 57.3099 52.4218 57.3099C53.1819 53.8564 51.0441 51.1742 47.6409 51.1655C42.8168 51.1525 37.997 51.1958 33.1728 51.1438C31.8081 51.1308 30.8536 51.3302 29.9899 52.6604C28.5776 54.8313 25.9604 55.5593 23.7233 54.84C21.3091 54.06 19.8363 52.4264 19.5038 49.8916C19.1756 47.4087 20.4237 45.1078 22.609 43.9595C25.2435 42.5686 28.5776 43.3312 30.2231 45.9528C30.9184 47.0577 31.6397 47.3307 32.8144 47.3177C37.1246 47.2657 41.4304 47.296 45.8572 47.296C44.9589 44.9475 44.1513 42.7376 43.2487 40.571C43.1018 40.2201 42.562 39.8951 42.156 39.8214C41.4563 39.6958 40.7092 39.6784 40.0052 39.7867C36.7186 40.2937 34.0928 39.2754 32.1622 36.5239C31.4194 35.4666 30.5427 35.302 29.2211 35.575C26.6082 36.1079 24.4834 34.8513 23.3994 32.5418C22.3024 30.1976 22.8163 27.2727 24.6259 25.5655C26.496 23.8062 29.1391 23.4552 31.4151 24.6728C33.6781 25.8861 34.8961 28.3647 34.4426 30.8259C34.1057 32.6588 36.0492 35.4796 37.8804 35.6183C39.4351 35.7396 41.0072 35.6443 42.5663 35.6443C42.3115 17.7615 57.4748 8.72699 68.9759 9.46795C81.7898 10.2912 90.6866 19.7851 92.2111 35.523C94.4742 35.575 96.7675 36.3029 98.7412 34.1927C99.7302 33.1354 100.464 32.4421 99.9288 30.7479C99.2594 28.6333 100.901 25.9251 103.012 24.8375C105.345 23.6372 108.117 24.1182 109.94 26.0421C111.659 27.8534 112.069 30.7392 110.907 32.8668C109.676 35.1243 107.223 36.2076 104.744 35.8696C103.902 35.7569 102.581 35.9779 102.153 36.5499C99.9202 39.5441 97.0223 40.4887 93.4852 39.9687C92.0556 39.7564 91.3473 40.2201 90.9673 41.7843C90.5181 43.6346 89.5593 45.3591 88.7042 47.4217C93.3254 47.4217 97.8212 47.4564 102.313 47.3697C102.771 47.361 103.302 46.7024 103.656 46.2344C105.327 44.0462 107.78 43.0192 110.048 43.6345C112.419 44.2802 114.025 46.1391 114.125 48.349C114.259 51.4038 112.881 53.6874 110.285 54.7057C107.953 55.6199 105.155 55.0523 103.725 52.8857C102.719 51.3605 101.605 51.0962 99.9936 51.1308C95.6057 51.2175 91.2135 51.1568 86.8212 51.1612C83.2668 51.1612 81.1981 53.527 81.6905 57.3099C85.5903 57.3099 89.5334 57.4355 93.4679 57.2622C95.6878 57.1625 97.3721 57.7908 98.7325 59.5024C99.1774 60.0614 99.7647 60.5077 100.235 61.0537C101.479 62.4966 102.697 63.3415 104.926 63.0296C108.312 62.5529 111.089 65.4734 111.033 68.7883C110.976 72.1464 107.91 74.9153 104.576 74.6206C101.16 74.3173 98.6936 71.2018 99.4278 67.7353C99.7215 66.3531 99.199 65.7204 98.4691 64.7715C96.3442 62.0156 93.7313 60.967 90.259 61.3353C87.4949 61.6256 84.6791 61.396 81.7898 61.396C81.7509 62.2799 81.7164 62.9169 81.6948 63.5539C81.643 65.1138 80.8742 65.9761 79.2892 65.9804C71.0834 65.9891 62.8777 65.9891 54.6719 65.9804C53.074 65.9804 52.3441 65.0748 52.2923 63.5322C52.2707 62.8996 52.2318 62.2626 52.1929 61.4133L52.1886 61.409ZM77.8251 62.3319C77.8251 60.0007 77.959 57.8428 77.7906 55.7066C77.6049 53.3884 78.4082 51.8848 80.2739 50.4245C87.6763 44.6312 89.9696 34.1797 85.9488 25.6305C81.915 17.0552 72.1934 11.9855 63.072 14.1087C54.2919 16.1496 48.5781 21.7653 46.9024 30.6742C45.3735 38.8075 47.9821 45.7838 54.6719 50.9098C56.0799 51.9888 56.7018 53.1631 56.6197 54.9266C56.5074 57.3489 56.5938 59.7841 56.5938 62.2843H61.0422C61.0422 61.0753 60.986 60.0051 61.0551 58.9391C61.1458 57.5872 61.7159 56.4519 63.2491 56.5342C64.7002 56.6079 65.3394 57.6002 65.2876 59.0604C65.2487 60.1134 65.2789 61.1707 65.2789 62.2886H69.1054C69.1054 61.0883 69.1054 60.0224 69.1054 58.9608C69.1054 57.5092 69.7878 56.5299 71.2519 56.5429C72.6382 56.5559 73.1997 57.5785 73.2601 58.8871C73.312 60.0094 73.3595 61.1317 73.4156 62.3319H77.8208H77.8251ZM25.5458 29.7903C26.8501 30.7132 27.5757 31.6188 28.2926 31.6102C28.8843 31.6058 29.9121 30.5269 29.9251 29.9116C29.9381 29.2833 28.975 28.1567 28.3833 28.1177C27.6707 28.07 26.8976 28.9366 25.5458 29.7903ZM108.428 29.9072C107.12 28.993 106.381 28.0873 105.669 28.1047C105.073 28.1177 104.062 29.2096 104.045 29.8423C104.027 30.4576 105.021 31.5755 105.617 31.6058C106.329 31.6448 107.094 30.7695 108.428 29.9072ZM25.2133 52.1101C26.1418 50.8102 27.0531 50.0909 27.0444 49.3803C27.0358 48.7693 25.9993 47.712 25.386 47.6903C24.7641 47.6687 23.6369 48.6306 23.5851 49.2416C23.5246 49.9522 24.3797 50.7452 25.2133 52.1144V52.1101ZM111.313 49.4149C110.1 48.544 109.335 47.5777 108.761 47.6817C108.031 47.816 107.461 48.817 106.822 49.4409C107.413 50.0432 107.992 51.1135 108.597 51.1265C109.318 51.1438 110.065 50.2555 111.313 49.4149ZM30.75 69.2692C29.6962 68.3853 29.0095 67.3757 28.4481 67.445C27.7139 67.5317 27.0833 68.4676 26.4096 69.0396C27.0229 69.6852 27.5497 70.6905 28.271 70.8638C28.8152 70.9938 29.6098 70.0492 30.7457 69.2692H30.75ZM108.484 69.1263C107.115 68.2553 106.355 67.4017 105.651 67.4407C105.047 67.4753 104.045 68.5413 104.049 69.1393C104.058 69.7589 105.047 70.8248 105.647 70.8552C106.355 70.8898 107.107 70.0189 108.48 69.1263H108.484Z" fill="#fff"/>
<path d="M75.6268 39.2362C72.189 39.2536 69.5805 36.736 69.533 33.3605C69.4855 29.9417 72.2063 27.0689 75.5318 27.0255C78.7925 26.9865 81.7164 29.946 81.6861 33.2565C81.6602 36.593 79.0041 39.2146 75.6268 39.2319V39.2362ZM76.0155 30.908C75.6959 30.908 75.3763 30.9123 75.0611 30.9167C74.5428 31.688 73.5236 32.5416 73.6358 33.2045C73.7654 33.9672 74.8883 35.0808 75.5836 35.0808C76.2617 35.0808 77.3803 33.9325 77.4882 33.1742C77.5832 32.4982 76.551 31.6706 76.0155 30.908Z" fill="#fff"/>
<path d="M64.4497 33.2524C64.4368 36.6582 61.8757 39.2191 58.4638 39.2408C54.9958 39.2624 52.2663 36.5759 52.2922 33.1614C52.3181 29.9376 55.1211 27.095 58.3343 27.0344C61.6209 26.9737 64.4627 29.8639 64.4454 33.2524H64.4497ZM58.8612 30.9255C58.5416 30.9212 58.2177 30.9169 57.8981 30.9082C57.3841 31.6752 56.3692 32.5244 56.4858 33.1787C56.6197 33.9544 57.7124 35.0636 58.4206 35.0853C59.0901 35.107 60.2518 33.963 60.3468 33.2221C60.4332 32.5288 59.401 31.6968 58.8655 30.9255H58.8612Z" fill="#fff"/>
</g>
<defs>
<clipPath id="clip0_43_20">
<rect width="134" height="105" fill="white"/>
</clipPath>
</defs>
</svg>
