<svg width="467" height="467" viewBox="0 0 467 467" fill="none" xmlns="http://www.w3.org/2000/svg">
<path d="M235.735 466.525C219.675 464.793 205.842 464.05 192.272 461.72C153.848 455.11 137.7 409.726 163.312 380.212C172.426 369.699 179.386 358.75 181.468 344.656C186.463 310.876 153.192 278.275 119.5 284.318C115.292 285.075 113.122 286.633 112.016 291.35C101.62 335.497 87.7146 378.465 66.5584 418.753C60.9527 429.426 54.0657 439.487 47.0767 449.344C43.7861 453.989 39.2578 458.066 34.5694 461.356C21.9602 470.224 8.78309 466.045 4.03643 451.31C1.61942 443.826 -0.287986 435.556 0.294427 427.853C2.0271 405.212 4.22571 382.527 7.98227 360.162C10.8943 342.821 16.4855 325.946 20.6643 308.823C21.1448 306.857 21.072 303.581 19.8635 302.533C7.29794 291.787 3.25017 277.256 1.60486 261.822C-4.6852 202.998 7.28338 148.426 41.602 99.7947C79.7792 45.674 131.803 13.0298 197.47 2.79388C306.119 -14.1252 411.696 47.1592 450.791 149.751C501.009 281.507 423.446 427.635 286.041 459.347C268.918 463.293 251.14 464.4 235.735 466.525ZM82.4583 181.959C81.7594 180.983 81.2352 180.182 80.6528 179.44C66.4419 161.53 66.9952 140.942 82.4 124.067C96.6255 108.487 110.967 92.995 125.426 77.6193C132.808 69.7568 140.627 71.4749 142.811 81.9292C146.698 100.61 150.207 119.407 152.741 138.307C153.906 146.999 153.818 156.42 151.751 164.879C147.907 180.59 135.895 189.108 122.907 192.937C121.596 217.966 120.344 241.889 119.107 265.68C148.679 264.224 172.732 274.606 188.982 300.028C207.124 328.421 202.959 364.021 179.168 389.661C170.242 399.286 166.559 410.148 171.116 422.99C175.295 434.769 183.682 441.817 195.883 443.928C231.148 450.043 265.977 447.859 299.858 436.327C412.191 398.077 472.471 282.483 437.788 169.131C406.556 67.0922 305.377 3.95871 198.868 21.038C142.913 30.0071 97.0768 57.6135 62.6563 102.721C24.8286 152.285 11.5204 208.342 21.7272 269.845C22.5571 274.839 25.178 279.527 26.9544 284.361C42.6358 248.135 55.6964 211.807 82.4583 181.959ZM101.794 192.952C100.906 192.777 100.018 192.602 99.1153 192.427C96.3634 195.034 93.2038 197.32 90.9615 200.305C86.0401 206.886 81.0605 213.511 77.0273 220.645C53.4396 262.477 38.6754 307.629 27.828 354.163C21.7272 380.357 16.9805 406.799 18.8734 433.91C19.1792 438.322 20.5333 442.661 21.6399 448.194C32.298 440.768 38.2095 431.377 43.8443 421.854C60.8071 393.185 72.6446 362.274 82.3855 330.576C93.5532 294.248 103.076 257.483 103.614 219.131C103.731 210.409 102.435 201.673 101.78 192.952H101.794ZM129.852 101.207C127.246 103.114 126.212 103.653 125.469 104.454C115.103 115.607 104.692 126.717 94.4997 138.016C87.4234 145.864 86.8701 155.692 92.5195 164.719C97.9941 173.47 108.55 177.634 118.218 174.868C128.804 171.825 135.88 163.889 135.196 153.377C134.089 136.443 131.803 119.582 129.867 101.207H129.852Z" fill="#0D40BF"/>
<path d="M278.294 81.7697C278.396 107.338 258.39 127.722 233.099 127.824C208.143 127.926 187.831 107.774 187.642 82.7598C187.453 57.1191 207.24 36.6619 232.473 36.4144C257.779 36.1668 278.192 56.3766 278.294 81.7697ZM233.419 54.9205C217.986 54.7312 205.333 67.0347 205.376 82.1629C205.42 96.563 217.665 108.968 232.138 109.274C247.47 109.595 260.356 97.393 260.531 82.3667C260.706 67.588 248.373 55.1098 233.419 54.9205Z" fill="#0D40BF"/>
<path d="M339.419 384.61C313.836 384.566 294.049 364.589 294.107 338.876C294.165 313.628 313.938 293.928 339.36 293.812C364.987 293.695 385.153 313.672 385.138 339.181C385.138 364.677 365.016 384.653 339.419 384.61ZM339.826 311.779C325.062 311.633 312.409 323.893 312.002 338.73C311.594 353.407 324.654 366.613 339.695 366.73C354.197 366.846 366.909 354.062 366.967 339.283C367.025 324.417 354.707 311.925 339.841 311.779H339.826Z" fill="#0D40BF"/>
<path d="M294.107 126.193C294.107 100.669 314.36 80.4448 339.768 80.6049C365.161 80.7651 385.444 101.31 385.153 126.572C384.861 151.79 364.87 171.694 339.754 171.753C314.273 171.825 294.121 151.703 294.107 126.193ZM339.914 98.9218C324.727 98.7762 311.827 111.458 311.972 126.368C312.118 141.089 324.771 153.552 339.564 153.552C354.518 153.552 366.879 141.263 366.938 126.368C366.996 111.444 354.794 99.0529 339.914 98.9218Z" fill="#0D40BF"/>
<path d="M383.551 278.13C358.231 278.101 337.759 257.542 337.977 232.352C338.196 207.454 358.449 187.376 383.536 187.201C408.755 187.026 429.474 207.556 429.46 232.716C429.46 257.935 409.002 278.174 383.551 278.145V278.13ZM410.924 232.789C410.954 217.632 399.014 205.445 384.017 205.314C368.699 205.197 356.411 217.515 356.498 232.92C356.585 247.728 369.165 260.352 383.769 260.279C398.504 260.206 410.881 247.67 410.91 232.789H410.924Z" fill="#0D40BF"/>
</svg>
