<svg width="584" height="690" viewBox="0 0 584 690" fill="none" xmlns="http://www.w3.org/2000/svg">
    <path d="M220.757 389.451C228.249 375.389 234.451 361.079 236.036 344.39C238.39 319.754 243.596 295.411 248.123 267.514C238.39 276.119 230.988 282.595 223.677 289.162C191.739 317.942 159.959 346.926 127.862 375.525C105.023 395.905 75.3711 388.5 66.566 360.286C61.2694 343.303 70.1877 331.098 82.2522 320.976C121.524 287.984 161.023 255.264 200.453 222.476C220.463 205.832 240.834 189.642 260.414 172.501C281.102 154.408 303.352 152.008 327.21 164.372C344.254 173.203 360.868 182.872 377.302 192.79C381.172 195.122 384.183 199.583 386.537 203.681C407.067 239.662 427.529 275.666 447.584 311.919C451.138 318.327 455.212 321.044 462.546 321.225C490.07 321.927 517.572 323.377 545.073 324.214C567.641 324.916 584.323 340.042 583.689 359.788C582.987 381.571 567.46 395.452 543.67 394.591C505.236 393.187 466.801 391.467 428.412 389.27C424.383 389.044 419.403 385.76 416.868 382.386C402.132 362.822 388.031 342.782 373.68 322.946C371.598 320.071 369.266 317.376 365.599 312.757C359.873 341.56 354.44 367.917 349.641 394.388" fill="#0D40BF"/>
    <path d="M349.596 394.365C376.215 416.692 410.326 452.039 435.497 473.528C439.299 476.788 443.057 481.113 444.732 485.71C462.432 534.19 479.975 582.716 497.042 631.446C507.703 661.879 488.984 689.052 457.566 689.889C440.906 690.342 424.451 676.552 418.294 656.309C407.882 622.094 397.583 587.834 387.736 553.46C385.133 544.335 380.471 537.678 373.137 531.632C344.662 508.195 316.504 484.306 288.527 460.258C286.421 458.447 283.932 456.069 281.827 454.326L349.596 394.365Z" fill="#0D40BF"/>
    <path d="M220.757 389.451C209.779 426.836 178.904 488.269 167.791 524.25C166.772 527.556 161.634 530.477 157.786 531.926C114.756 548.252 71.5686 564.103 28.5391 580.384C5.22489 589.192 -5.45891 611.406 2.73502 632.827C11.608 656.037 33.9263 665.366 58.2138 656.286C105.906 638.443 153.621 620.69 201.381 603.028C221.527 595.578 235.787 583.758 242.419 561.725C252.514 528.167 265.167 495.379 276.937 462.319C277.956 459.443 279.993 455.231 282.211 454.756L220.757 389.474V389.451Z" fill="#0D40BF"/>
    <path d="M371.892 170.916C323.951 170.961 286.625 133.825 286.444 85.9108C286.286 37.5663 323.883 -0.0904122 372.209 0.00016305C419.675 0.0907383 457.272 37.9739 457.204 85.6844C457.136 133.372 419.629 170.848 371.892 170.916Z" fill="#0D40BF"/>
    <path d="M220.757 389.451L349.596 394.342L281.306 454.779L220.757 389.451Z" fill="#0D40BF"/>
    <path d="M317.409 53.5527C318.45 52.0808 316.526 54.5716 317.613 53.2809C318.586 52.1261 319.537 50.9939 320.555 49.907C322.072 48.2767 323.656 46.7369 325.331 45.2424C326.304 44.3819 327.3 43.5215 328.296 42.7063C328.545 42.5025 330.13 41.2797 329.066 42.0949C329.813 41.5288 330.56 40.9853 331.307 40.4419C344.005 31.4523 358.152 27.1273 373.793 27.9878C383.232 28.5086 393.078 30.9315 401.68 34.8942C398.918 33.6261 401.408 34.8036 402.064 35.1432C403.196 35.7093 404.283 36.3434 405.369 37C406.976 37.9964 408.538 39.0833 410.055 40.1928C410.802 40.7363 409.76 39.9664 409.692 39.8984C409.964 40.1022 410.213 40.306 410.485 40.5325C410.847 40.8268 411.209 41.1212 411.549 41.4156C412.544 42.2534 413.495 43.1365 414.423 44.0423C415.351 44.948 416.211 45.8311 417.049 46.7822C417.524 47.303 417.977 47.8238 418.43 48.3672C418.701 48.6842 419.991 50.3146 419.154 49.2503C421.033 51.7185 422.708 54.3452 424.156 57.1077C424.541 57.855 424.903 58.5796 425.265 59.3495C425.447 59.7344 425.628 60.1194 425.786 60.5043C425.944 60.8666 425.922 60.8213 425.718 60.3458C425.854 60.6628 425.99 61.0025 426.103 61.3195C426.805 63.1763 427.461 65.0557 427.982 66.9805C429.249 71.5545 429.702 74.7246 429.928 79.2081C430.472 90.6206 428.095 101.784 424.451 112.562C422.119 119.469 433.029 122.458 435.361 115.574C441.653 96.9835 444.211 75.9701 436.628 57.3342C431.898 45.6953 423.862 35.9358 413.518 28.8483C404.554 22.7118 393.508 19.3605 382.892 17.7075C364.399 14.8544 345.68 18.1604 329.677 27.9878C321.347 33.1053 313.289 39.8305 307.608 47.8917C305.842 50.3825 307.155 54.1867 309.645 55.6359C312.474 57.2889 315.621 56.1114 317.386 53.598L317.409 53.5527Z" fill="white"/>
    <path d="M349.596 88.6505H435.678C442.966 88.6505 442.966 77.3286 435.678 77.3286H349.596C342.308 77.3286 342.308 88.6505 349.596 88.6505Z" fill="white"/>
    </svg>
    