<svg width="438" height="370" viewBox="0 0 438 370" fill="none" xmlns="http://www.w3.org/2000/svg">
<path d="M218.422 369.047C150.53 369.047 82.6382 369.047 14.7597 369.047C0.355883 369.047 -3.64822 362.215 3.37604 349.533C64.2029 239.795 125.057 130.072 185.939 20.3623C193.277 7.14743 204.524 -0.0408233 219.775 0.000174403C234.63 0.0411721 244.798 7.54374 251.904 20.417C312.211 129.662 372.669 238.812 433.073 348.002C433.947 349.587 434.876 351.159 435.669 352.799C439.769 361.258 435.491 368.569 426.185 369.006C424.135 369.102 422.085 369.034 420.035 369.034C352.826 369.034 285.618 369.034 218.422 369.034V369.047ZM28.3436 347.742H408.72C407.353 345.105 406.369 343.096 405.29 341.155C381.415 297.999 357.527 254.855 333.667 211.698C300.24 151.241 266.841 90.7553 233.387 30.3111C226.403 17.6838 212.068 17.5472 204.647 29.9421C204.06 30.9124 203.54 31.9237 202.994 32.9213C157.678 114.602 112.348 196.27 67.0317 277.951C54.2678 300.964 41.5039 323.991 28.33 347.742H28.3436Z" fill="#0D40BF"/>
<path d="M255.402 177.151C248.528 207.886 241.928 237.445 235.026 268.289C239.591 265.583 243.021 263.547 248.31 260.417C237.65 282.419 227.783 302.782 217.917 323.144C217.397 323.103 216.878 323.062 216.372 323.034C210.906 297.274 205.44 271.514 199.96 245.767C200.247 245.603 200.52 245.439 200.807 245.275C205.016 251.22 209.239 257.178 214.487 264.585C216.605 249.553 218.504 236.051 220.609 221.073C207.353 226.895 195.313 232.17 182.057 237.992C189.833 200.028 197.377 163.198 204.948 126.232H237.432C230.667 147.482 224.08 168.186 217.001 190.393C230.011 185.911 242.023 181.77 255.389 177.151H255.402Z" fill="#0D40BF"/>
</svg>
