<svg width="546" height="460" viewBox="0 0 546 460" fill="none" xmlns="http://www.w3.org/2000/svg">
<path d="M272.711 459.982C193.383 459.982 114.054 459.982 34.7082 459.982C8.57213 459.982 -5.56647 441.39 2.06023 416.553C15.5795 372.486 29.3288 328.473 43.2197 284.513C44.5822 280.178 46.8649 275.349 50.2448 272.607C55.8011 268.096 56.6859 263.037 56.6682 256.473C56.4735 182.475 56.5443 108.477 56.562 34.4606C56.5797 12.0825 68.5772 0 90.838 0C212.051 0 333.265 0 454.478 0C476.155 0 488.365 12.2594 488.365 33.9653C488.382 108.565 488.418 183.147 488.294 257.747C488.294 263.302 489.09 267.53 493.744 271.599C497.495 274.871 500.309 280.019 501.831 284.884C515.899 329.41 529.683 374.008 543.362 418.658C550.086 440.629 535.594 459.947 512.483 459.965C432.553 460.035 352.641 459.982 272.711 459.982ZM16.1988 416.588H528.197C527.755 414.023 527.631 411.971 527.047 410.06C514.589 369.992 502.096 329.923 489.55 289.89C486.4 279.878 481.003 276.127 469.696 276.127C338.237 276.092 206.778 276.092 75.3191 276.127C63.7286 276.127 58.5793 279.948 55.1995 290.74C47.5551 315.099 39.9283 339.458 32.3724 363.853C27.0107 381.154 21.7552 398.491 16.2165 416.588H16.1988ZM70.506 262.877H474.456V253.537C474.456 180.423 474.456 107.309 474.456 34.1953C474.456 18.964 469.112 13.4623 453.841 13.4623C332.928 13.4092 212.034 13.4092 91.1211 13.4623C75.85 13.4623 70.5237 18.964 70.5237 34.213C70.5237 107.327 70.5237 180.441 70.5237 253.555C70.5237 256.456 70.5237 259.375 70.5237 262.877H70.506ZM14.1639 430.157C14.3585 432.456 14.1639 434.013 14.6417 435.322C18.4462 445.494 26.8161 446.626 36.23 446.626C193.719 446.538 351.208 446.555 508.679 446.538C511.917 446.538 515.209 446.555 518.376 445.954C526.268 444.45 530.338 438.736 529.843 430.157H14.1639Z" fill="#0D40BF"/>
<path d="M272.109 348.534C206.389 348.534 140.668 348.534 74.9474 348.534C62.0652 348.534 60.2956 346.216 63.5516 334.045C66.7368 322.14 69.9927 310.252 72.9478 298.293C74.3281 292.756 76.717 289.908 83.1404 289.926C209.273 290.103 335.406 290.085 461.538 289.926C467.82 289.926 470.51 292.402 471.908 298.099C474.916 310.358 478.243 322.529 481.534 334.718C484.542 345.862 482.614 348.534 471.023 348.534C404.719 348.551 338.414 348.534 272.092 348.534H272.109ZM459.114 303.105H85.7593C82.9988 313.525 80.3268 323.59 77.6017 333.851H467.449C464.529 323.13 461.857 313.277 459.096 303.105H459.114Z" fill="#0D40BF"/>
<path d="M272.339 405.107C247.601 405.107 222.863 405.142 198.125 405.107C187.26 405.089 185.136 402.064 188.587 391.592C191.525 382.676 194.922 373.901 197.594 364.915C199.558 358.281 203.186 355.486 210.299 355.539C251.83 355.769 293.344 355.751 334.875 355.557C341.528 355.521 345.191 358.033 347.173 364.313C350.252 374.114 353.986 383.684 357.065 393.484C359.613 401.604 356.994 405.054 348.323 405.089C323.001 405.213 297.661 405.125 272.339 405.125V405.107ZM203.044 390.512H341.882C339.759 384.321 338.202 378.678 335.777 373.441C334.963 371.672 331.955 369.903 329.92 369.886C291.627 369.673 253.334 369.673 215.024 369.886C212.989 369.886 209.963 371.655 209.149 373.406C206.725 378.642 205.168 384.286 203.027 390.512H203.044Z" fill="#0D40BF"/>
<path d="M273.384 30.0732C329.991 30.0732 386.581 30.0732 443.188 30.0732C454.213 30.0732 454.743 30.6039 454.743 41.5542C454.743 106.389 454.743 171.224 454.743 236.059C454.743 246.814 453.912 247.664 443.135 247.664C329.336 247.664 215.555 247.664 101.756 247.664C91.0503 247.664 90.2009 246.797 90.2009 236.006C90.2009 171.171 90.2009 106.336 90.2009 41.5012C90.2009 30.5863 90.7318 30.0732 101.809 30.0732C159.001 30.0732 216.192 30.0732 273.384 30.0732ZM103.472 43.2702C103.296 46.879 103.03 49.7625 103.03 52.6283C103.012 109.803 103.189 166.961 102.818 224.135C102.765 232.344 105.083 234.449 113.134 234.431C219.253 234.184 325.373 234.254 431.492 234.272C434.642 234.272 437.774 234.272 441.224 234.272V43.2702H103.472Z" fill="#0D40BF"/>
</svg>
