<svg width="470" height="412" viewBox="0 0 470 412" fill="none" xmlns="http://www.w3.org/2000/svg">
<path d="M65.7744 156.91C54.6682 154.927 46.8968 149.418 41.8432 139.81C40.9764 138.165 37.5094 137.592 35.1295 137.092C28.5187 135.726 21.2321 135.976 15.3411 133.199C5.04285 128.351 0.16552 118.993 0.106757 107.52C0.00392208 88.6717 0.0333036 69.8087 0.0920666 50.9605C0.136139 32.0535 12.0944 19.6251 31.1777 19.5223C37.5829 19.4929 41.6816 18.3617 45.2368 12.2651C50.07 3.99416 58.5319 0.0864138 68.1984 0.0717231C123.788 -0.0164215 179.378 -0.0311122 234.968 0.0717231C245.986 0.0864138 252.156 6.06555 255.285 19.3313C259.678 19.3313 264.276 19.3313 268.874 19.3313C286.885 19.3607 293.79 26.1037 294.054 43.9236C294.069 45.1283 294.172 46.3476 294.274 48.6687C299.842 48.6687 305.366 48.801 310.86 48.5659C311.992 48.5218 313.725 47.3025 314.078 46.2595C316.12 40.0746 320.938 39.3107 326.388 39.3548C335.688 39.4576 345.002 39.2079 354.301 39.5311C370.564 40.104 382.081 48.2133 388.501 62.9628C390.528 67.6051 392.938 68.9126 397.756 68.8538C418.323 68.6041 438.905 68.4572 459.457 69.0595C462.968 69.1623 467.743 72.3649 469.388 75.4794C470.637 77.8299 468.668 83.0157 466.538 85.6307C464.966 87.5699 460.824 88.0547 457.812 88.084C437.495 88.2897 417.163 88.2897 396.831 88.0987C392.6 88.0547 390.484 89.2152 388.707 93.3433C381.831 109.312 369.227 117.216 351.921 117.539C343.107 117.701 334.277 117.862 325.478 117.421C322.334 117.26 317.265 116.085 316.516 114.087C313.519 106.11 307.335 107.696 301.502 107.623C299.343 107.593 297.169 107.623 294.039 107.623C294.039 111.31 294.128 114.38 294.025 117.466C293.643 128.675 286.327 136.24 275.221 136.901C273.017 137.034 270.799 137.136 268.61 136.975C260.941 136.402 254.683 136.211 252.039 146.494C249.997 154.428 241.549 156.822 233.499 156.998C225.669 157.175 217.824 157.277 209.994 156.954C205.41 156.763 203.456 158.35 202.795 162.933C201.532 171.616 199.901 180.269 198.065 188.863C195.714 199.91 188.574 205.537 177.336 205.757C170.769 205.889 162.293 203.73 158.15 207.006C154.051 210.238 154.095 218.964 152.758 225.354C149.512 240.853 145.957 256.323 143.606 271.968C141.711 284.529 144.532 296.693 149.952 308.284C151.642 311.898 153.596 313.793 157.68 313.146C181.949 309.312 200.518 318.758 215.018 337.768C216.781 340.089 218.882 342.278 221.173 344.056C235.203 354.883 236.775 369.897 234.997 385.792C233.367 400.321 221.247 411.339 206.527 411.383C147.264 411.56 88.0015 411.574 28.739 411.383C12.5645 411.325 0.341809 398.441 0.121448 382.075C-0.0548409 369.103 -0.0254594 356.117 0.121448 343.145C0.268356 328.234 9.37663 316.922 24.1408 314.336C30.2375 313.279 32.2648 310.561 33.5135 304.773C43.9734 256.381 54.8151 208.078 65.5247 159.746C65.6716 159.07 65.6422 158.35 65.7597 156.925L65.7744 156.91ZM234.85 19.8749C233.146 19.6986 232.191 19.5076 231.236 19.5076C178.115 19.4929 124.993 19.4488 71.8564 19.5076C62.1752 19.5076 58.9139 23.1215 58.8992 33.0965C58.8698 62.9628 58.8698 92.8145 58.8992 122.681C58.8992 134.286 61.47 136.857 73.1198 136.857C124.773 136.872 176.425 136.857 228.093 136.857C230.237 136.857 232.368 136.666 234.85 136.534V19.8749ZM117.236 392.021C145.369 392.021 173.487 392.036 201.62 392.006C207.129 392.006 212.917 391.757 214.709 385.175C217.119 376.361 217.207 367.767 209.979 360.642C202.663 353.428 195.802 345.716 188.06 339.017C184.725 336.137 179.657 333.772 175.338 333.728C127.652 333.317 79.9657 333.39 32.2648 333.39C22.8774 333.39 19.6895 336.652 19.572 346.289C19.4398 356.558 19.5132 366.826 19.5426 377.095C19.5867 388.745 22.7452 391.962 34.3068 391.977C61.9401 392.021 89.5882 391.977 117.221 391.977L117.236 392.021ZM82.184 175.641C106.703 179.416 116.017 192.095 111.815 215.556C108.554 233.802 105.072 252.004 101.194 270.132C98.0206 284.984 86.4149 293.784 71.019 293.916C66.1417 293.96 61.2644 293.916 55.961 293.916C54.5801 300.351 53.2579 306.418 51.877 312.867H130.311C123.862 298.118 121.541 283.074 124.126 267.958C127.858 246.098 132.735 224.429 137.348 202.731C140.521 187.776 144.061 172.894 147.646 157.087C127.696 157.087 108.657 157.013 89.6175 157.219C88.2219 157.233 86.0036 158.952 85.5923 160.304C84.1526 165.181 83.3152 170.235 82.1693 175.641H82.184ZM255.241 39.5017V117.157H274.148V40.0012C272.077 39.8102 270.431 39.5458 268.771 39.5311C264.408 39.4723 260.06 39.5164 255.241 39.5164V39.5017ZM39.096 40.104C22.4073 38.2971 19.5573 40.8239 19.5426 56.6017C19.5426 71.7479 19.5279 86.8794 19.5426 102.026C19.5573 115.894 25.0957 119.992 39.0813 116.423V40.104H39.096ZM60.1626 274.759C65.3631 274.319 69.4471 273.937 73.5312 273.643C78.8639 273.261 81.1263 269.853 82.1106 265.137C84.5492 253.458 87.2229 241.808 89.3237 230.056C90.8662 221.447 91.9534 212.72 92.6438 203.994C93.1874 196.957 87.267 197.089 82.5366 196.09C77.4389 195.018 77.2038 198.456 76.4252 202.011C71.21 225.766 65.8479 249.477 60.1773 274.759H60.1626ZM333.91 98.4116C341.814 98.015 349.365 98.2941 356.666 97.1042C366.95 95.4147 372.459 87.658 372.018 77.2276C371.621 67.7961 364.864 60.0541 355.168 59.1139C348.234 58.4381 341.182 58.9817 333.91 58.9817V98.4116ZM167.875 157.439C165.804 167.017 163.776 176.317 161.617 186.306C166.303 186.306 170.079 186.894 173.502 186.086C175.676 185.572 178.555 183.28 179.07 181.268C181.038 173.584 182.169 165.695 183.697 157.439H167.861H167.875ZM294.421 87.5845H312.697V69.2505H294.421V87.5845Z" fill="#0D40BF"/>
<path d="M127.637 68.8839C118.837 68.8839 110.038 68.972 101.253 68.8545C93.114 68.7516 88.4423 65.0936 88.3101 59.0117C88.1779 52.8709 92.8642 48.831 100.841 48.7722C118.676 48.64 136.525 48.6253 154.36 48.7722C162.249 48.8457 166.274 52.3715 166.377 58.5856C166.494 65.0937 162.322 68.7076 154.051 68.8398C145.251 68.9867 136.452 68.8692 127.667 68.8692L127.637 68.8839Z" fill="#0D40BF"/>
<path d="M126.815 107.624C117.78 107.624 108.745 107.741 99.7101 107.594C92.3647 107.477 88.3541 103.98 88.2954 98.0892C88.2366 92.0366 92.6585 88.2317 100.21 88.2023C118.529 88.1289 136.834 88.1142 155.153 88.2023C162.528 88.2464 166.318 91.6547 166.391 97.8101C166.465 104.01 162.807 107.447 155.388 107.565C145.868 107.726 136.349 107.609 126.815 107.609V107.624Z" fill="#0D40BF"/>
</svg>
